/* XPM */
static char * icewm(alt1)_xpm[] = {
"56 25 181 2",
"  	c None",
". 	c #333333",
"+ 	c #2B2B2B",
"@ 	c #7B7B7B",
"# 	c #E2DFDF",
"$ 	c #F9F2F2",
"% 	c #F9F3F3",
"& 	c #E1DEDE",
"* 	c #7B7C7C",
"= 	c #323232",
"- 	c #343434",
"; 	c #858D8D",
"> 	c #A34444",
", 	c #A01111",
"' 	c #A01616",
") 	c #8B3F3F",
"! 	c #878E8E",
"~ 	c #2D2D2D",
"{ 	c #787F7F",
"] 	c #8F5F5F",
"^ 	c #C33131",
"/ 	c #DB2929",
"( 	c #D82A2A",
"_ 	c #B22D2D",
": 	c #905F5F",
"< 	c #242323",
"[ 	c #94A8A8",
"} 	c #A84C4C",
"| 	c #DB2525",
"1 	c #F63131",
"2 	c #F33030",
"3 	c #CE2323",
"4 	c #A94D4D",
"5 	c #303030",
"6 	c #555757",
"7 	c #897C7C",
"8 	c #B93E3E",
"9 	c #EF2B2B",
"0 	c #FF3232",
"a 	c #FC3232",
"b 	c #E72B2B",
"c 	c #BA3E3E",
"d 	c #96A2A2",
"e 	c #9D4B4B",
"f 	c #CA2727",
"g 	c #F83131",
"h 	c #FF3333",
"i 	c #F53030",
"j 	c #313132",
"k 	c #94A2A3",
"l 	c #B04343",
"m 	c #DE2727",
"n 	c #ED9898",
"o 	c #DEFFFF",
"p 	c #EAABAB",
"q 	c #FE3333",
"r 	c #F08686",
"s 	c #E3DADA",
"t 	c #DEF8F8",
"u 	c #DFF3F3",
"v 	c #E7C3C3",
"w 	c #F85454",
"x 	c #E3D6D6",
"y 	c #F18181",
"z 	c #FB3232",
"A 	c #2E2E2E",
"B 	c #797F7F",
"C 	c #8E6161",
"D 	c #C23131",
"E 	c #EF2E2E",
"F 	c #F56C6C",
"G 	c #E0EEEE",
"H 	c #E7BFBF",
"I 	c #F94F4F",
"J 	c #EBA6A6",
"K 	c #E5CECE",
"L 	c #E1E4E4",
"M 	c #DDFCFC",
"N 	c #FA4B4B",
"O 	c #FD3636",
"P 	c #DEF9F9",
"Q 	c #DEF7F7",
"R 	c #E6C5C5",
"S 	c #F95252",
"T 	c #FE3232",
"U 	c #272727",
"V 	c #A4ADAD",
"W 	c #AD4040",
"X 	c #D92727",
"Y 	c #FEFBFB",
"Z 	c #FEAEAE",
"` 	c #FE9696",
" .	c #FEEEEE",
"..	c #FEA1A1",
"+.	c #FE3838",
"@.	c #FFFFFF",
"#.	c #FEEBEB",
"$.	c #FE8585",
"%.	c #FE9F9F",
"&.	c #FB4747",
"*.	c #F56969",
"=.	c #F95151",
"-.	c #F75B5B",
";.	c #F85959",
">.	c #E5CCCC",
",.	c #9FA9A9",
"'.	c #C23838",
").	c #EC2C2C",
"!.	c #FEF7F7",
"~.	c #FEF5F5",
"{.	c #FECFCF",
"].	c #FEFAFA",
"^.	c #FE7070",
"/.	c #FD3838",
"(.	c #DEFAFA",
"_.	c #E0ECEC",
":.	c #E6C3C3",
"<.	c #F27B7B",
"[.	c #EBA5A5",
"}.	c #938080",
"|.	c #535454",
"1.	c #D22B2B",
"2.	c #F73030",
"3.	c #FE6B6B",
"4.	c #FEA0A0",
"5.	c #FE9A9A",
"6.	c #F75E5E",
"7.	c #E6C4C4",
"8.	c #FD3939",
"9.	c #DFF4F4",
"0.	c #EBA9A9",
"a.	c #F18383",
"b.	c #984545",
"c.	c #9CA5A5",
"d.	c #FEFDFD",
"e.	c #FE3535",
"f.	c #FE8080",
"g.	c #FEA5A5",
"h.	c #ED9C9C",
"i.	c #E3D9D9",
"j.	c #E4D1D1",
"k.	c #E5CACA",
"l.	c #FE7F7F",
"m.	c #FE8F8F",
"n.	c #EAAFAF",
"o.	c #F37474",
"p.	c #F85555",
"q.	c #E4D4D4",
"r.	c #FE3434",
"s.	c #DEF6F6",
"t.	c #DEF5F5",
"u.	c #FEF9F9",
"v.	c #FE3A3A",
"w.	c #FEBDBD",
"x.	c #FA4C4C",
"y.	c #FD3A3A",
"z.	c #DDFBFB",
"A.	c #FA4D4D",
"B.	c #FB4242",
"C.	c #E5CFCF",
"D.	c #FED1D1",
"E.	c #FECECE",
"F.	c #EE9696",
"G.	c #EF8E8E",
"H.	c #EAAEAE",
"I.	c #DFF2F2",
"J.	c #E2E0E0",
"K.	c #F27C7C",
"L.	c #E0E9E9",
"M.	c #FE5656",
"N.	c #FED3D3",
"O.	c #FEF6F6",
"P.	c #FED5D5",
"Q.	c #FE7676",
"R.	c #F56A6A",
"S.	c #E3DBDB",
"T.	c #FC3B3B",
"U.	c #DFF0F0",
"V.	c #EF8F8F",
"W.	c #EBA4A4",
"X.	c #E9B2B2",
". . . . . . . . . . . . . . . . . . . . . . . . . . . . . . . . . . . . . . . . . . . . . . . . . . . . . . . . ",
". . . . . . . . . . . . . . . . . . . . . . . . . . . . . . . . . . . . . . . . . . . . . . . . . . . . . . . . ",
". . . + @ # $ % % % % % % % % % % % % % % % % % % % % % % % % % % % % % % % % % % % % % % % % % % % & * + . . . ",
". . = - ; > , ' ' ' ' ' ' ' ' ' ' ' ' ' ' ' ' ' ' ' ' ' ' ' ' ' ' ' ' ' ' ' ' ' ' ' ' ' ' ' ' ' ' ' ) ! - = . . ",
". . ~ { ] ^ / ( ( ( ( ( ( ( ( ( ( ( ( ( ( ( ( ( ( ( ( ( ( ( ( ( ( ( ( ( ( ( ( ( ( ( ( ( ( ( ( ( ( ( _ : { ~ . . ",
". . < [ } | 1 2 2 2 2 2 2 2 2 2 2 2 2 2 2 2 2 2 2 2 2 2 2 2 2 2 2 2 2 2 2 2 2 2 2 2 2 2 2 2 2 2 2 2 3 4 [ < . . ",
". 5 6 7 8 9 0 a a a a a a a a a a a a a a a a a a a a a a a a a a a a a a a a a a a a a a a a a a a b c 7 6 5 . ",
". + d e f g h h h h h h h h h h h h h h h h h h h h h h h h h h h h h h h h h h h h h h h h h h h h i f e d + . ",
". j k l m a h h h h h h h h h h h h h h h h h h h h h h h n o o o p h q r s t u v w h x o o o o y h z m l k j . ",
"A B C D E q h h h h h h h h h h h h h h h h h h h h h h h F G o H I h J o t K L M N O P Q R R R S h T E D C B A ",
"U V W X g h h h Y Z `  . ...h h +.@.#.h h $.@.%.h h h h h h s o &.h *.o G =.h h -.h ;.o >.h h h h h h g X W V U ",
". ,.'.).a h h h Y !.~.{.].@.^.h +.@.#.h h $.@.%.h h h h h /.(._.h h :.o <.h h h h h y o [.h h h h h h a ).'.}.|.",
". ,.1.2.2.h h h Y @.3.h 4.@.5.h +.@.#.h h $.@.%.h h h h h 6.o 7.h 8.(.9./.h h h h h 0.o o o o a.h h h h 2.1.b.c.",
". ,.1.2.2.h h h Y d.e.h f.@.g.h +.@.#.h h $.@.%.h h h h h r o h.h I o i.h h h h h h j.o k.R R S h h h h 2.1.b.c.",
". ,.'.).a h h h Y ~.h h l.@.g.h +.@.#.h h m.@.%.h h h h h n.o o.h p.o q.h h h h h r.s.t.q h h h h h h a ).'.}.|.",
"U V W X g h h h Y ~.h h l.@.g.h q u.].v.h w.@.%.h h h h h x o x.h y.z.t A.h h B.h w o C.h h h h h h h g X W V U ",
"A B C D E q h h Y ~.h h l.@.g.h h D.@.E.w.@.@.%.h h h /.F.(.o G.h h H.o I.>.J.7.h K.o L.R R J h h h T E D C B A ",
". j k l m a h h Y ~.h h l.@.g.h h M.N.O.P.Q.d.%.h h h R.o o o S.h h T.n.U.Q J.V.h W.o o o o X.h h h z m l k j . ",
". + d e f g h h h h h h h h h h h h h h h h h h h h h h h h h h h h h h h h h h h h h h h h h h h h i f e d + . ",
". 5 6 7 8 9 0 a a a a a a a a a a a a a a a a a a a a a a a a a a a a a a a a a a a a a a a a a a a b c 7 6 5 . ",
". . < [ } | 1 2 2 2 2 2 2 2 2 2 2 2 2 2 2 2 2 2 2 2 2 2 2 2 2 2 2 2 2 2 2 2 2 2 2 2 2 2 2 2 2 2 2 2 3 4 [ < . . ",
". . ~ { ] ^ / ( ( ( ( ( ( ( ( ( ( ( ( ( ( ( ( ( ( ( ( ( ( ( ( ( ( ( ( ( ( ( ( ( ( ( ( ( ( ( ( ( ( ( _ : { ~ . . ",
". . = - ; > , ' ' ' ' ' ' ' ' ' ' ' ' ' ' ' ' ' ' ' ' ' ' ' ' ' ' ' ' ' ' ' ' ' ' ' ' ' ' ' ' ' ' ' ) ! - = . . ",
". . . + @ # $ % % % % % % % % % % % % % % % % % % % % % % % % % % % % % % % % % % % % % % % % % % % & * + . . . ",
". . . . . . . . . . . . . . . . . . . . . . . . . . . . . . . . . . . . . . . . . . . . . . . . . . . . . . . . "};
