/* XPM */
static char * icewm_xpm[] = {
"56 25 151 2",
"  	c None",
". 	c #333333",
"+ 	c #2B2B2B",
"@ 	c #7B7B7B",
"# 	c #E2DFDF",
"$ 	c #F9F2F2",
"% 	c #F9F3F3",
"& 	c #E1DEDE",
"* 	c #7B7C7C",
"= 	c #323232",
"- 	c #343434",
"; 	c #858D8D",
"> 	c #A34444",
", 	c #A01111",
"' 	c #A01616",
") 	c #8B3F3F",
"! 	c #878E8E",
"~ 	c #2D2D2D",
"{ 	c #787F7F",
"] 	c #8F5F5F",
"^ 	c #C33131",
"/ 	c #DB2929",
"( 	c #D82A2A",
"_ 	c #B22D2D",
": 	c #905F5F",
"< 	c #242323",
"[ 	c #94A8A8",
"} 	c #A84C4C",
"| 	c #DB2525",
"1 	c #F63131",
"2 	c #F33030",
"3 	c #CE2323",
"4 	c #A94D4D",
"5 	c #303030",
"6 	c #555757",
"7 	c #897C7C",
"8 	c #B93E3E",
"9 	c #EF2B2B",
"0 	c #FF3232",
"a 	c #FC3232",
"b 	c #E72B2B",
"c 	c #BA3E3E",
"d 	c #96A2A2",
"e 	c #9D4B4B",
"f 	c #CA2727",
"g 	c #F83131",
"h 	c #FF3333",
"i 	c #F53030",
"j 	c #313132",
"k 	c #94A2A3",
"l 	c #B04343",
"m 	c #DE2727",
"n 	c #FEC8C8",
"o 	c #FFFFFF",
"p 	c #FE6E6E",
"q 	c #FE4747",
"r 	c #FEFDFD",
"s 	c #FEF2F2",
"t 	c #FB3232",
"u 	c #2E2E2E",
"v 	c #797F7F",
"w 	c #8E6161",
"x 	c #C23131",
"y 	c #EF2E2E",
"z 	c #FE3333",
"A 	c #FEADAD",
"B 	c #FE8A8A",
"C 	c #FE3232",
"D 	c #272727",
"E 	c #A4ADAD",
"F 	c #AD4040",
"G 	c #D92727",
"H 	c #FEE2E2",
"I 	c #FEEAEA",
"J 	c #FECECE",
"K 	c #FEEBEB",
"L 	c #FEF6F6",
"M 	c #FE3B3B",
"N 	c #FEA8A8",
"O 	c #FEF3F3",
"P 	c #FECDCD",
"Q 	c #FE5E5E",
"R 	c #FED6D6",
"S 	c #FEDEDE",
"T 	c #FED2D2",
"U 	c #FE5A5A",
"V 	c #FEF5F5",
"W 	c #FE4E4E",
"X 	c #FEFBFB",
"Y 	c #FE4848",
"Z 	c #9FA9A9",
"` 	c #C23838",
" .	c #EC2C2C",
"..	c #FEACAC",
"+.	c #FE5F5F",
"@.	c #FE4646",
"#.	c #FEFCFC",
"$.	c #FEA9A9",
"%.	c #FEC0C0",
"&.	c #FE4A4A",
"*.	c #FEF7F7",
"=.	c #FED7D7",
"-.	c #938080",
";.	c #535454",
">.	c #D22B2B",
",.	c #F73030",
"'.	c #FE7777",
").	c #FEA0A0",
"!.	c #FE8787",
"~.	c #FE6969",
"{.	c #FE5050",
"].	c #FEEEEE",
"^.	c #FE3C3C",
"/.	c #FE8D8D",
"(.	c #FE9696",
"_.	c #FE4949",
":.	c #FE4242",
"<.	c #984545",
"[.	c #9CA5A5",
"}.	c #FE5252",
"|.	c #FEE8E8",
"1.	c #FECBCB",
"2.	c #FEECEC",
"3.	c #FE3A3A",
"4.	c #FE7474",
"5.	c #FEB4B4",
"6.	c #FE6262",
"7.	c #FEABAB",
"8.	c #FE3838",
"9.	c #FE7575",
"0.	c #FE5555",
"a.	c #FE4F4F",
"b.	c #FE6C6C",
"c.	c #FE6767",
"d.	c #FEF1F1",
"e.	c #FE3939",
"f.	c #FE6B6B",
"g.	c #FE3737",
"h.	c #FEF4F4",
"i.	c #FEEDED",
"j.	c #FE3434",
"k.	c #FEBEBE",
"l.	c #FEE3E3",
"m.	c #FEB0B0",
"n.	c #FEBBBB",
"o.	c #FE9D9D",
"p.	c #FEE4E4",
"q.	c #FEFAFA",
"r.	c #FEC5C5",
"s.	c #FE9E9E",
"t.	c #FEB3B3",
". . . . . . . . . . . . . . . . . . . . . . . . . . . . . . . . . . . . . . . . . . . . . . . . . . . . . . . . ",
". . . . . . . . . . . . . . . . . . . . . . . . . . . . . . . . . . . . . . . . . . . . . . . . . . . . . . . . ",
". . . + @ # $ % % % % % % % % % % % % % % % % % % % % % % % % % % % % % % % % % % % % % % % % % % % & * + . . . ",
". . = - ; > , ' ' ' ' ' ' ' ' ' ' ' ' ' ' ' ' ' ' ' ' ' ' ' ' ' ' ' ' ' ' ' ' ' ' ' ' ' ' ' ' ' ' ' ) ! - = . . ",
". . ~ { ] ^ / ( ( ( ( ( ( ( ( ( ( ( ( ( ( ( ( ( ( ( ( ( ( ( ( ( ( ( ( ( ( ( ( ( ( ( ( ( ( ( ( ( ( ( _ : { ~ . . ",
". . < [ } | 1 2 2 2 2 2 2 2 2 2 2 2 2 2 2 2 2 2 2 2 2 2 2 2 2 2 2 2 2 2 2 2 2 2 2 2 2 2 2 2 2 2 2 2 3 4 [ < . . ",
". 5 6 7 8 9 0 a a a a a a a a a a a a a a a a a a a a a a a a a a a a a a a a a a a a a a a a a a a b c 7 6 5 . ",
". + d e f g h h h h h h h h h h h h h h h h h h h h h h h h h h h h h h h h h h h h h h h h h h h h i f e d + . ",
". j k l m a h h h n o o p h h h q r o s h h h h h h h h h h h h h h h h h h h h h h h h h h h h h h t m l k j . ",
"u v w x y z h h h n o o A h h h B o o s h h h h h h h h h h h h h h h h h h h h h h h h h h h h h h C y x w v u ",
"D E F G g h h h h n o H I z h h J K L s h h M N K O P Q h h K R p S L T U h h V o W h h X o Y h h h h g G F E D ",
". Z `  .a h h h h n o ..o +.h @.#.$.X s h h %.o I T #.L &.h K #.*.=.K o H h h V o W h h X o Y h h h h a  .` -.;.",
". Z >.,.,.h h h h n o '.o ).h !.o ~.o s h {.o ].^.h /.o (.h K o ).h _.o o :.h V o W h h X o Y h h h h h ,.>.<.[.",
". Z >.,.,.h h h h n o }.|.S h 1.2.3.o s h 4.o o o o o o 5.h K o 6.h h O o W h V o W h h X o Y h h h h h ,.>.<.[.",
". Z `  .a h h h h n o }.7.o 6.X 7.8.o s h 9.o s n n n n (.h K o 0.h h s o W h V o a.h 3.o o Y h h h h a  .` -.;.",
"D E F G g h h h h n o }.b.o S o c.8.o s h }.o d.@.h h e.3.h K o 0.h h s o W h I o c.h f.o o Y h h h h g G F E D ",
"u v w x y z h h h n o }.g.h.o i.j.8.o s h h k.o h.J R L 6.h K o 0.h h s o W h k.o l.m.].o o Y h h h C y x w v u ",
". j k l m a h h h n o }.h n.o A h 8.o s h h e.o.p.q.s k.q h K o 0.h h s o W h &.r.h.p.s.t.o Y h h h t m l k j . ",
". + d e f g h h h h h h h h h h h h h h h h h h h h h h h h h h h h h h h h h h h h h h h h h h h h i f e d + . ",
". 5 6 7 8 9 0 a a a a a a a a a a a a a a a a a a a a a a a a a a a a a a a a a a a a a a a a a a a b c 7 6 5 . ",
". . < [ } | 1 2 2 2 2 2 2 2 2 2 2 2 2 2 2 2 2 2 2 2 2 2 2 2 2 2 2 2 2 2 2 2 2 2 2 2 2 2 2 2 2 2 2 2 3 4 [ < . . ",
". . ~ { ] ^ / ( ( ( ( ( ( ( ( ( ( ( ( ( ( ( ( ( ( ( ( ( ( ( ( ( ( ( ( ( ( ( ( ( ( ( ( ( ( ( ( ( ( ( _ : { ~ . . ",
". . = - ; > , ' ' ' ' ' ' ' ' ' ' ' ' ' ' ' ' ' ' ' ' ' ' ' ' ' ' ' ' ' ' ' ' ' ' ' ' ' ' ' ' ' ' ' ) ! - = . . ",
". . . + @ # $ % % % % % % % % % % % % % % % % % % % % % % % % % % % % % % % % % % % % % % % % % % % & * + . . . ",
". . . . . . . . . . . . . . . . . . . . . . . . . . . . . . . . . . . . . . . . . . . . . . . . . . . . . . . . "};
