/* XPM */
static char * taskbuttonbg_xpm[] = {
"1 29 5 1",
" 	c None",
".	c #FFFFFF",
"+	c #333333",
"@	c #262626",
"#	c #191919",
".",
"+",
"+",
"+",
"+",
"+",
"+",
"+",
"+",
"+",
"+",
"+",
"+",
"+",
"+",
"+",
"+",
"+",
"+",
"+",
"+",
"+",
"+",
"+",
"+",
"+",
"+",
"@",
"#"};
