/* XPM */
static char * taskbarbg_xpm[] = {
"1 29 6 1",
" 	c None",
".	c #454545",
"+	c #F7F7F7",
"@	c #333333",
"#	c #262626",
"$	c #191919",
".",
"+",
"@",
"@",
"@",
"@",
"@",
"@",
"@",
"@",
"@",
"@",
"@",
"@",
"@",
"@",
"@",
"@",
"@",
"@",
"@",
"@",
"@",
"@",
"@",
"@",
"@",
"#",
"$"};
