/* XPM */
static char * a_xpm[] = {
"7 19 3 1",
" 	c None",
".	c #FAFAFA",
"+	c #707070",
".......",
".......",
".......",
".......",
".......",
".......",
".......",
"..+++..",
".+++++.",
".++.++.",
".++.++.",
".+++++.",
".++.++.",
".++.++.",
".......",
".......",
".......",
".......",
"......."};
