/* XPM */
static char * colon_xpm[] = {
"4 19 3 1",
" 	c None",
".	c #FAFAFA",
"+	c #707070",
"....",
"....",
"....",
"....",
"....",
"....",
".++.",
".++.",
"....",
"....",
"....",
"....",
".++.",
".++.",
"....",
"....",
"....",
"....",
"...."};
