/* XPM */
static char * m_xpm[] = {
"9 19 13 1",
" 	c None",
".	c #FAFAFA",
"+	c #707070",
"@	c #717171",
"#	c #868686",
"$	c #7C7C7C",
"%	c #747474",
"&	c #B9B9B9",
"*	c #D7D7D7",
"=	c #D8D8D8",
"-	c #777777",
";	c #F8F8F8",
">	c #F9F9F9",
".........",
".........",
".........",
".........",
".........",
".........",
".........",
".........",
".........",
"+++@#$%&.",
"++*++=+-.",
"++;++>++.",
"++.++.++.",
"++.++.++.",
".........",
".........",
".........",
".........",
"........."};
