/* XPM */
static char * n0_xpm[] = {
"10 19 32 1",
" 	c None",
".	c #FAFAFA",
"+	c #E6E6E6",
"@	c #9A9A9A",
"#	c #767676",
"$	c #E7E7E7",
"%	c #EEEEEE",
"&	c #7E7E7E",
"*	c #8C8C8C",
"=	c #EBEBEB",
"-	c #8B8B8B",
";	c #7F7F7F",
">	c #EFEFEF",
",	c #B3B3B3",
"'	c #707070",
")	c #D0D0D0",
"!	c #CECECE",
"~	c #B5B5B5",
"{	c #8A8A8A",
"]	c #EAEAEA",
"^	c #F6F6F6",
"/	c #F5F5F5",
"(	c #777777",
"_	c #F9F9F9",
":	c #F8F8F8",
"<	c #717171",
"[	c #E9E9E9",
"}	c #B4B4B4",
"|	c #7C7C7C",
"1	c #E5E5E5",
"2	c #999999",
"3	c #989898",
"..........",
"..........",
"..........",
"..........",
"..+@##@$..",
".%&*==-;>.",
".,')..!'~.",
".{'=..]'-.",
".#'^../'(.",
".''_..:'<.",
".#'/../'(.",
".{']..['-.",
".,')..!'}.",
".%|*==-&>.",
"..12##3+..",
"..........",
"..........",
"..........",
".........."};
