/* XPM */
static char * n1_xpm[] = {
"10 19 7 1",
" 	c None",
".	c #FAFAFA",
"+	c #E2E2E2",
"@	c #B5B5B5",
"#	c #868686",
"$	c #707070",
"%	c #B4B4B4",
"..........",
"..........",
"..........",
"..........",
".+@#$$....",
".#%+$$....",
"....$$....",
"....$$....",
"....$$....",
"....$$....",
"....$$....",
"....$$....",
"....$$....",
"....$$....",
"..$$$$$$..",
"..........",
"..........",
"..........",
".........."};
