/* XPM */
static char * n2_xpm[] = {
"10 19 33 1",
" 	c None",
".	c #FAFAFA",
"+	c #DFDFDF",
"@	c #AAAAAA",
"#	c #848484",
"$	c #727272",
"%	c #7C7C7C",
"&	c #929292",
"*	c #D1D1D1",
"=	c #8C8C8C",
"-	c #C0C0C0",
";	c #E5E5E5",
">	c #F6F6F6",
",	c #E6E6E6",
"'	c #959595",
")	c #707070",
"!	c #C1C1C1",
"~	c #EAEAEA",
"{	c #818181",
"]	c #EEEEEE",
"^	c #AFAFAF",
"/	c #878787",
"(	c #BCBCBC",
"_	c #CACACA",
":	c #BABABA",
"<	c #BEBEBE",
"[	c #B9B9B9",
"}	c #C3C3C3",
"|	c #B6B6B6",
"1	c #C6C6C6",
"2	c #B4B4B4",
"3	c #717171",
"4	c #C7C7C7",
"..........",
"..........",
"..........",
"..........",
".+@#$%&*..",
".=-;>,')!.",
"......~){.",
"......])$.",
"......^)/.",
".....())_.",
"....:))<..",
"...[))}...",
"..|))1....",
".2)34.....",
".)))))))).",
"..........",
"..........",
"..........",
".........."};
