/* XPM */
static char * n3_xpm[] = {
"10 19 37 1",
" 	c None",
".	c #FAFAFA",
"+	c #D7D7D7",
"@	c #9F9F9F",
"#	c #7E7E7E",
"$	c #717171",
"%	c #777777",
"&	c #8C8C8C",
"*	c #BABABA",
"=	c #F7F7F7",
"-	c #919191",
";	c #C9C9C9",
">	c #EBEBEB",
",	c #F6F6F6",
"'	c #E4E4E4",
")	c #969696",
"!	c #707070",
"~	c #A6A6A6",
"{	c #ECECEC",
"]	c #747474",
"^	c #797979",
"/	c #E5E5E5",
"(	c #9A9A9A",
"_	c #B0B0B0",
":	c #868686",
"<	c #EFEFEF",
"[	c #E1E1E1",
"}	c #9E9E9E",
"|	c #767676",
"1	c #CBCBCB",
"2	c #EDEDED",
"3	c #E2E2E2",
"4	c #B4B4B4",
"5	c #D4D4D4",
"6	c #787878",
"7	c #7A7A7A",
"8	c #929292",
"..........",
"..........",
"..........",
"..........",
".+@#$%&*=.",
".-;>,')!~.",
"......{!].",
"......{!^.",
"....=/(!_.",
"...!!!!:<.",
"....,[)!}.",
"......>!|.",
"......>!^.",
".-12,3)!4.",
".5(6$78;..",
"..........",
"..........",
"..........",
".........."};
