/* XPM */
static char * n4_xpm[] = {
"10 19 20 1",
" 	c None",
".	c #FAFAFA",
"+	c #F9F9F9",
"@	c #F7F7F7",
"#	c #959595",
"$	c #AFAFAF",
"%	c #707070",
"&	c #949494",
"*	c #CBCBCB",
"=	c #818181",
"-	c #EEEEEE",
";	c #E1E1E1",
">	c #7B7B7B",
",	c #DFDFDF",
"'	c #EFEFEF",
")	c #828282",
"!	c #C9C9C9",
"~	c #969696",
"{	c #ACACAC",
"]	c #929292",
"..........",
"..........",
"..........",
"......+...",
"....@#$%%.",
"....$&@%%.",
"...*=-.%%.",
"..;>,..%%.",
".')!...%%.",
".~{....%%.",
".]@....%%.",
".%%%%%%%%%",
".......%%.",
".......%%.",
".......%%.",
"..........",
"..........",
"..........",
".........."};
