/* XPM */
static char * n5_xpm[] = {
"10 19 30 1",
" 	c None",
".	c #FAFAFA",
"+	c #707070",
"@	c #767676",
"#	c #727272",
"$	c #818181",
"%	c #9C9C9C",
"&	c #DBDBDB",
"*	c #909090",
"=	c #C9C9C9",
"-	c #EDEDED",
";	c #F4F4F4",
">	c #D7D7D7",
",	c #858585",
"'	c #CBCBCB",
")	c #D9D9D9",
"!	c #848484",
"~	c #F3F3F3",
"{	c #DCDCDC",
"]	c #8F8F8F",
"^	c #C5C5C5",
"/	c #E9E9E9",
"(	c #F6F6F6",
"_	c #DDDDDD",
":	c #888888",
"<	c #CACACA",
"[	c #9F9F9F",
"}	c #7C7C7C",
"|	c #7E7E7E",
"1	c #9A9A9A",
"..........",
"..........",
"..........",
"..........",
".+++++++..",
".++.......",
".++.......",
".++.......",
".++@#$%&..",
".*=-;>,+'.",
"......)+!.",
"......~+#.",
"......{+,.",
".]^/(_:+<.",
".>[}#|1)..",
"..........",
"..........",
"..........",
".........."};
