/* XPM */
static char * n6_xpm[] = {
"10 19 39 1",
" 	c None",
".	c #FAFAFA",
"+	c #F3F3F3",
"@	c #B0B0B0",
"#	c #7F7F7F",
"$	c #727272",
"%	c #878787",
"&	c #CACACA",
"*	c #F7F7F7",
"=	c #919191",
"-	c #777777",
";	c #CCCCCC",
">	c #F2F2F2",
",	c #E1E1E1",
"'	c #9D9D9D",
")	c #C3C3C3",
"!	c #707070",
"~	c #BBBBBB",
"{	c #929292",
"]	c #E5E5E5",
"^	c #7A7A7A",
"/	c #787878",
"(	c #747474",
"_	c #8A8A8A",
":	c #C9C9C9",
"<	c #717171",
"[	c #9B9B9B",
"}	c #EDEDED",
"|	c #BDBDBD",
"1	c #767676",
"2	c #E6E6E6",
"3	c #898989",
"4	c #F5F5F5",
"5	c #EEEEEE",
"6	c #7E7E7E",
"7	c #CBCBCB",
"8	c #E7E7E7",
"9	c #909090",
"0	c #D4D4D4",
"..........",
"..........",
"..........",
"..........",
"..+@#$%&..",
".*=-;>,'..",
".)!~......",
".{!]......",
".^!=/(_:..",
".<![}}[!|.",
".1!2..]!#.",
".3!4..4!$.",
".@!2..]!%.",
".56[}}[!7.",
"..8[--90..",
"..........",
"..........",
"..........",
".........."};
