/* XPM */
static char * n7_xpm[] = {
"10 19 28 1",
" 	c None",
".	c #FAFAFA",
"+	c #707070",
"@	c #E5E5E5",
"#	c #737373",
"$	c #A8A8A8",
"%	c #A6A6A6",
"&	c #F0F0F0",
"*	c #747474",
"=	c #E3E3E3",
"-	c #B9B9B9",
";	c #969696",
">	c #F7F7F7",
",	c #808080",
"'	c #D3D3D3",
")	c #CBCBCB",
"!	c #868686",
"~	c #8D8D8D",
"{	c #C2C2C2",
"]	c #DBDBDB",
"^	c #7A7A7A",
"/	c #F4F4F4",
"(	c #9F9F9F",
"_	c #B2B2B2",
":	c #EAEAEA",
"<	c #717171",
"[	c #727272",
"}	c #ECECEC",
"..........",
"..........",
"..........",
"..........",
".++++++++.",
"......@+#.",
"......$+%.",
".....&*+=.",
".....-+;..",
"....>,+'..",
"....)+!...",
"....~+{...",
"...]+^/...",
"...(+_....",
"..:<[}....",
"..........",
"..........",
"..........",
".........."};
