/* XPM */
static char * n8_xpm[] = {
"10 19 22 1",
" 	c None",
".	c #FAFAFA",
"+	c #F5F5F5",
"@	c #B8B8B8",
"#	c #878787",
"$	c #767676",
"%	c #A3A3A3",
"&	c #707070",
"*	c #A2A2A2",
"=	c #EEEEEE",
"-	c #787878",
";	c #7A7A7A",
">	c #AFAFAF",
",	c #B0B0B0",
"'	c #8F8F8F",
")	c #A8A8A8",
"!	c #EDEDED",
"~	c #777777",
"{	c #A6A6A6",
"]	c #A7A7A7",
"^	c #F6F6F6",
"/	c #B9B9B9",
"..........",
"..........",
"..........",
"..........",
".+@#$$#@+.",
".%&*==%&%.",
".$&=..=&$.",
".-&=..=&;.",
".>&%==%&,.",
".+'&&&&'+.",
".)&%!=%&).",
".~&=..=&~.",
".~&=..=&~.",
".{&%==%&].",
".^/#$$#/^.",
"..........",
"..........",
"..........",
".........."};
