/* XPM */
static char * n9_xpm[] = {
"10 19 43 1",
" 	c None",
".	c #FAFAFA",
"+	c #D3D3D3",
"@	c #909090",
"#	c #777777",
"$	c #797979",
"%	c #9D9D9D",
"&	c #E9E9E9",
"*	c #CACACA",
"=	c #707070",
"-	c #9A9A9A",
";	c #EDEDED",
">	c #808080",
",	c #F0F0F0",
"'	c #868686",
")	c #E5E5E5",
"!	c #B4B4B4",
"~	c #727272",
"{	c #F5F5F5",
"]	c #898989",
"^	c #7E7E7E",
"/	c #E6E6E6",
"(	c #767676",
"_	c #BCBCBC",
":	c #9B9B9B",
"<	c #717171",
"[	c #C7C7C7",
"}	c #757575",
"|	c #919191",
"1	c #7B7B7B",
"2	c #E3E3E3",
"3	c #949494",
"4	c #B8B8B8",
"5	c #C5C5C5",
"6	c #E2E2E2",
"7	c #F2F2F2",
"8	c #CBCBCB",
"9	c #929292",
"0	c #F8F8F8",
"a	c #C9C9C9",
"b	c #7F7F7F",
"c	c #B0B0B0",
"d	c #F3F3F3",
"..........",
"..........",
"..........",
"..........",
"..+@#$%&..",
".*=-;;->,.",
".'=)..)=!.",
".~={..{=].",
".^=/..)=(.",
"._=:;;:=<.",
"..[]}#|=1.",
"......2=3.",
"......4=5.",
"..%678(90.",
"..a'~bcd..",
"..........",
"..........",
"..........",
".........."};
