/* XPM */
static char * p_xpm[] = {
"7 19 8 1",
" 	c None",
".	c #FAFAFA",
"+	c #707070",
"@	c #717171",
"#	c #848484",
"$	c #D1D1D1",
"%	c #E9E9E9",
"&	c #7C7C7C",
".......",
".......",
".......",
".......",
".......",
".......",
".......",
".++@#$.",
".++%+&.",
".++%+&.",
".+++#$.",
".++....",
".++....",
".++....",
".......",
".......",
".......",
".......",
"......."};
