/* XPM */
static char * slash_xpm[] = {
"5 19 13 1",
" 	c None",
".	c #FAFAFA",
"+	c #F0F0F0",
"@	c #878787",
"#	c #CACACA",
"$	c #AEAEAE",
"%	c #A0A0A0",
"&	c #D7D7D7",
"*	c #F7F7F7",
"=	c #828282",
"-	c #ADADAD",
";	c #868686",
">	c #F1F1F1",
".....",
".....",
".....",
".....",
".....",
".....",
".....",
"..+@.",
"..#$.",
"..%&.",
".*=*.",
".&%..",
".-#..",
".;>..",
".....",
".....",
".....",
".....",
"....."};
