/* XPM */
static char * closeI_xpm[] = {
"25 60 8 1",
" 	c None",
".	c #FFFFFF",
"+	c #333333",
"@	c #7F7F7F",
"#	c #BCBCBC",
"$	c #E5E5E5",
"%	c #FAFAFA",
"&	c #A7A7A7",
".........................",
"+++++++++++++++++++++++++",
"+++++++++++++++++++++++++",
"+++++++++++++++++++++++++",
"+++++++++++++++++++++++++",
"+++++++++++++++++++++++++",
"+++++++++++++++++++++++++",
"+++++++++++++++++++++++++",
"+++++++++++++++++++++++++",
"+++++++++++++++++++++++++",
"+++++++++..++++++..++++++",
"+++++++++...++++...++++++",
"++++++++++...++...+++++++",
"+++++++++++......++++++++",
"++++++++++++....+++++++++",
"++++++++++++....+++++++++",
"+++++++++++......++++++++",
"++++++++++...++...+++++++",
"+++++++++...++++...++++++",
"+++++++++..++++++..++++++",
"+++++++++++++++++++++++++",
"+++++++++++++++++++++++++",
"+++++++++++++++++++++++++",
"+++++++++++++++++++++++++",
"+++++++++++++++++++++++++",
"+++++++++++++++++++++++++",
"+++++++++++++++++++++++++",
"+++++++++++++++++++++++++",
"+++++++++++++++++++++++++",
".........................",
".........................",
"+++++++++++++++++++++++++",
"+++++++++++++++++++++++++",
"+++++++++++++++++++++++++",
"+++++++++++++++++++++++++",
"++++++++++@#$%%$#@+++++++",
"++++++++@$........$@+++++",
"+++++++&............&++++",
"++++++&..............&+++",
"+++++@................@++",
"+++++$...++......++...$++",
"++++@....+++....+++....@+",
"++++#.....+++..+++.....#+",
"++++$......++++++......$+",
"++++%.......++++.......%+",
"++++%.......++++.......%+",
"++++$......++++++......$+",
"++++#.....+++..+++.....#+",
"++++@....+++....+++....@+",
"+++++$...++......++...$++",
"+++++@................@++",
"++++++&..............&+++",
"+++++++&............&++++",
"++++++++@$........$@+++++",
"++++++++++@#$%%$#@+++++++",
"+++++++++++++++++++++++++",
"+++++++++++++++++++++++++",
"+++++++++++++++++++++++++",
"+++++++++++++++++++++++++",
"........................."};
