/* XPM */
static char * closeO_xpm[] = {
"25 60 13 1",
" 	c None",
".	c #FFFFFF",
"+	c #333333",
"@	c #7F7F7F",
"#	c #BCBCBC",
"$	c #E5E5E5",
"%	c #FAFAFA",
"&	c #CFCFCF",
"*	c #A9A9A9",
"=	c #8F8F8F",
"-	c #A7A7A7",
";	c #808080",
">	c #B6B6B6",
".........................",
"+++++++++++++++++++++++++",
"+++++++++++++++++++++++++",
"+++++++++++++++++++++++++",
"+++++++++++++++++++++++++",
"++++++++++@#$%%$#@+++++++",
"++++++++@$.&*==*&.$@+++++",
"+++++++-.&=;;;;;;=&.-++++",
"++++++-.>;;;;;;;;;;>.-+++",
"+++++@.>;;;;;;;;;;;;>.@++",
"+++++$&;;..;;;;;;..;;&$++",
"++++@.=;;...;;;;...;;=.@+",
"++++#&;;;;...;;...;;;;&#+",
"++++$*;;;;;......;;;;;*$+",
"++++%=;;;;;;....;;;;;;=%+",
"++++%=;;;;;;....;;;;;;=%+",
"++++$*;;;;;......;;;;;*$+",
"++++#&;;;;...;;...;;;;&#+",
"++++@.=;;...;;;;...;;=.@+",
"+++++$&;;..;;;;;;..;;&$++",
"+++++@.>;;;;;;;;;;;;>.@++",
"++++++-.>;;;;;;;;;;>.-+++",
"+++++++-.&=;;;;;;=&.-++++",
"++++++++@$.&*==*&.$@+++++",
"++++++++++@#$%%$#@+++++++",
"+++++++++++++++++++++++++",
"+++++++++++++++++++++++++",
"+++++++++++++++++++++++++",
"+++++++++++++++++++++++++",
".........................",
".........................",
"+++++++++++++++++++++++++",
"+++++++++++++++++++++++++",
"+++++++++++++++++++++++++",
"+++++++++++++++++++++++++",
"++++++++++@#$%%$#@+++++++",
"++++++++@$........$@+++++",
"+++++++-............-++++",
"++++++-..............-+++",
"+++++@................@++",
"+++++$...++......++...$++",
"++++@....+++....+++....@+",
"++++#.....+++..+++.....#+",
"++++$......++++++......$+",
"++++%.......++++.......%+",
"++++%.......++++.......%+",
"++++$......++++++......$+",
"++++#.....+++..+++.....#+",
"++++@....+++....+++....@+",
"+++++$...++......++...$++",
"+++++@................@++",
"++++++-..............-+++",
"+++++++-............-++++",
"++++++++@$........$@+++++",
"++++++++++@#$%%$#@+++++++",
"+++++++++++++++++++++++++",
"+++++++++++++++++++++++++",
"+++++++++++++++++++++++++",
"+++++++++++++++++++++++++",
"........................."};
