/* XPM */
static char * frameATL_xpm[] = {
"5 30 6 1",
" 	c None",
".	c #FFFFFF",
"+	c #848484",
"@	c #333333",
"#	c #535353",
"$	c #474747",
"     ",
"     ",
"     ",
"     ",
"     ",
"   ..",
"  .+@",
" .#@@",
" +@@@",
".$@@@",
".@@@@",
".@@@@",
".@@@@",
".@@@@",
".@@@@",
".@@@@",
".@@@@",
".@@@@",
".@@@@",
".@@@@",
".@@@@",
".@@@@",
".@@@@",
".@@@@",
".@@@@",
".@@@@",
".@@@@",
".@@@@",
".@@@@",
".@@@@"};
