/* XPM */
static char * frameATR_xpm[] = {
"5 30 6 1",
" 	c None",
".	c #FFFFFF",
"+	c #333333",
"@	c #848484",
"#	c #535353",
"$	c #474747",
"     ",
"     ",
"     ",
"     ",
"     ",
"..   ",
"+@.  ",
"++#. ",
"+++@ ",
"+++$.",
"++++.",
"++++.",
"++++.",
"++++.",
"++++.",
"++++.",
"++++.",
"++++.",
"++++.",
"++++.",
"++++.",
"++++.",
"++++.",
"++++.",
"++++.",
"++++.",
"++++.",
"++++.",
"++++.",
"++++."};
