/* XPM */
static char * titleAR_xpm[] = {
"26 30 117 2",
"  	c None",
". 	c #FFFFFF",
"+ 	c #FDFEFE",
"@ 	c #A4A4A4",
"# 	c #333333",
"$ 	c #EAEAEA",
"% 	c #CDCDCD",
"& 	c #FF6565",
"* 	c #FD6565",
"= 	c #FA6363",
"- 	c #F16060",
"; 	c #E25A5A",
"> 	c #C74F4F",
", 	c #A74343",
"' 	c #A0A0A0",
") 	c #EFEFEF",
"! 	c #383838",
"~ 	c #FF3333",
"{ 	c #FE3232",
"] 	c #FC3232",
"^ 	c #F63131",
"/ 	c #E82E2E",
"( 	c #CE2929",
"_ 	c #AA2222",
": 	c #4F4F4F",
"< 	c #555555",
"[ 	c #FD3232",
"} 	c #F93131",
"| 	c #ED2F2F",
"1 	c #D82B2B",
"2 	c #B52424",
"3 	c #891D1D",
"4 	c #CFCFCF",
"5 	c #929292",
"6 	c #FB3232",
"7 	c #F23030",
"8 	c #E02C2C",
"9 	c #C12626",
"0 	c #971E1E",
"a 	c #939393",
"b 	c #CBCBCB",
"c 	c #343434",
"d 	c #CD2929",
"e 	c #A62121",
"f 	c #5C5C5C",
"g 	c #4C4C4C",
"h 	c #D72B2B",
"i 	c #8B2222",
"j 	c #DDDDDD",
"k 	c #7F7F7F",
"l 	c #BBBBBB",
"m 	c #676767",
"n 	c #434343",
"o 	c #8F2A2A",
"p 	c #E8E8E8",
"q 	c #6B6B6B",
"r 	c #FA3232",
"s 	c #B6B6B6",
"t 	c #ABABAB",
"u 	c #F53131",
"v 	c #E62E2E",
"w 	c #CC2828",
"x 	c #797979",
"y 	c #E0E0E0",
"z 	c #3B3B3B",
"A 	c #F73131",
"B 	c #EB2F2F",
"C 	c #D42A2A",
"D 	c #B22323",
"E 	c #933434",
"F 	c #EEEEEE",
"G 	c #5B5B5B",
"H 	c #EE2F2F",
"I 	c #DA2B2B",
"J 	c #BA2525",
"K 	c #901D1D",
"L 	c #C8C8C8",
"M 	c #9A9A9A",
"N 	c #E12D2D",
"O 	c #C32727",
"P 	c #9B1F1F",
"Q 	c #8A8A8A",
"R 	c #D3D3D3",
"S 	c #363636",
"T 	c #A72121",
"U 	c #565656",
"V 	c #F1F1F1",
"W 	c #535456",
"X 	c #8A2020",
"Y 	c #D7D7D7",
"Z 	c #888888",
"` 	c #9B9B9B",
" .	c #C3C3C3",
"..	c #F13030",
"+.	c #E42D2D",
"@.	c #CB2828",
"#.	c #A52121",
"$.	c #646464",
"%.	c #474747",
"&.	c #E72E2E",
"*.	c #DF2C2C",
"=.	c #AE2222",
"-.	c #8A2525",
";.	c #E3E3E3",
">.	c #737373",
",.	c #C82828",
"'.	c #BD2525",
").	c #A82121",
"!.	c #881B1B",
"~.	c #ADADAD",
"{.	c #B4B4B4",
"].	c #961E1E",
"^.	c #8C1C1C",
"/.	c #791818",
"(.	c #585858",
"_.	c #414141",
":.	c #454545",
"                                        . + . . . . ",
"                                        . @ # # # # ",
"                                      $ % # # # # # ",
"& & & & & & & & & & & & * = - ; > , ' ) ! # # # # # ",
"~ ~ ~ ~ ~ ~ ~ ~ ~ ~ ~ { ] ^ / ( _ : ) < # # # # # # ",
"~ ~ ~ ~ ~ ~ ~ ~ ~ ~ ~ [ } | 1 2 3 4 5 # # # # # # # ",
"~ ~ ~ ~ ~ ~ ~ ~ ~ ~ { 6 7 8 9 0 a b c # # # # # # # ",
"~ ~ ~ ~ ~ ~ ~ ~ ~ { ] ^ / d e f ) g # # # # # # # # ",
"~ ~ ~ ~ ~ ~ ~ ~ ~ [ } | h 2 i j k # # # # # # # # # ",
"~ ~ ~ ~ ~ ~ ~ ~ { 6 7 8 9 0 @ l # # # # # # # # # # ",
"~ ~ ~ ~ ~ ~ ~ { ] ^ / d e m $ n # # # # # # # # # # ",
"~ ~ ~ ~ ~ ~ ~ [ } | h 2 o p q # # # # # # # # # # # ",
"~ ~ ~ ~ ~ ~ { r 7 8 9 0 s t # # # # # # # # # # # # ",
"~ ~ ~ ~ ~ { ] u v w e x y z # # # # # # # # # # # # ",
"~ ~ ~ ~ { ] A B C D E F G # # # # # # # # # # # # # ",
"~ ~ ~ ~ [ } H I J K L M # # # # # # # # # # # # # # ",
"~ ~ ~ { 6 7 N O P Q R S # # # # # # # # # # # # # # ",
"~ ~ { ] ^ / d T U V W # # # # # # # # # # # # # # # ",
"~ ~ [ } | h 2 X Y Z # # # # # # # # # # # # # # # # ",
"[ [ r 7 8 9 0 `  .# # # # # # # # # # # # # # # # # ",
"A A ..+.@.#.$.F %.# # # # # # # # # # # # # # # # # ",
"&.&.*.d =.-.;.>.# # # # # # # # # # # # # # # # # # ",
",.,.'.).!.~.{.# # # # # # # # # # # # # # # # # # # ",
"].].^./.(.p _.# # # # # # # # # # # # # # # # # # # ",
". . . . . :.# # # # # # # # # # # # # # # # # # # # ",
"# # # # # # # # # # # # # # # # # # # # # # # # # # ",
"# # # # # # # # # # # # # # # # # # # # # # # # # # ",
"# # # # # # # # # # # # # # # # # # # # # # # # # # ",
"# # # # # # # # # # # # # # # # # # # # # # # # # # ",
". . . . . . . . . . . . . . . . . . . . . . . . . . "};
