/* XPM */
static char * titleIR_xpm[] = {
"26 30 102 2",
"  	c None",
". 	c #FDFEFE",
"+ 	c #FFFFFF",
"@ 	c #F3F3F3",
"# 	c #A4A4A4",
"$ 	c #333333",
"% 	c #EAEAEA",
"& 	c #CCCCCC",
"* 	c #E2E2E2",
"= 	c #E1E1E1",
"- 	c #DEDEDE",
"; 	c #D6D6D6",
"> 	c #C8C8C8",
", 	c #B1B1B1",
"' 	c #959595",
") 	c #A0A0A0",
"! 	c #EFEFEF",
"~ 	c #383838",
"{ 	c #D9D9D9",
"] 	c #D8D8D8",
"^ 	c #D1D1D1",
"/ 	c #C5C5C5",
"( 	c #AFAFAF",
"_ 	c #909090",
": 	c #4F4F4F",
"< 	c #555555",
"[ 	c #D7D7D7",
"} 	c #D3D3D3",
"| 	c #C9C9C9",
"1 	c #B7B7B7",
"2 	c #9A9A9A",
"3 	c #757575",
"4 	c #CFCFCF",
"5 	c #929292",
"6 	c #D5D5D5",
"7 	c #CDCDCD",
"8 	c #BEBEBE",
"9 	c #808080",
"0 	c #939393",
"a 	c #CBCBCB",
"b 	c #343434",
"c 	c #AEAEAE",
"d 	c #8D8D8D",
"e 	c #5C5C5C",
"f 	c #4C4C4C",
"g 	c #B6B6B6",
"h 	c #787878",
"i 	c #DDDDDD",
"j 	c #7F7F7F",
"k 	c #BBBBBB",
"l 	c #676767",
"m 	c #434343",
"n 	c #7C7C7C",
"o 	c #E8E8E8",
"p 	c #6B6B6B",
"q 	c #D4D4D4",
"r 	c #ABABAB",
"s 	c #D0D0D0",
"t 	c #C3C3C3",
"u 	c #ADADAD",
"v 	c #797979",
"w 	c #E0E0E0",
"x 	c #3B3B3B",
"y 	c #D2D2D2",
"z 	c #C7C7C7",
"A 	c #B4B4B4",
"B 	c #979797",
"C 	c #828282",
"D 	c #EEEEEE",
"E 	c #5B5B5B",
"F 	c #CACACA",
"G 	c #B9B9B9",
"H 	c #9E9E9E",
"I 	c #7B7B7B",
"J 	c #BFBFBF",
"K 	c #A5A5A5",
"L 	c #838383",
"M 	c #8A8A8A",
"N 	c #363636",
"O 	c #8E8E8E",
"P 	c #565656",
"Q 	c #F1F1F1",
"R 	c #535456",
"S 	c #767676",
"T 	c #888888",
"U 	c #9B9B9B",
"V 	c #C2C2C2",
"W 	c #ACACAC",
"X 	c #8C8C8C",
"Y 	c #646464",
"Z 	c #474747",
"` 	c #C4C4C4",
" .	c #BDBDBD",
"..	c #949494",
"+.	c #777777",
"@.	c #E3E3E3",
"#.	c #737373",
"$.	c #AAAAAA",
"%.	c #666666",
"&.	c #585858",
"*.	c #414141",
"=.	c #454545",
"                                          . + + + + ",
"                                        @ # $ $ $ $ ",
"                                      % & $ $ $ $ $ ",
"* * * * * * * * * * * * = - ; > , ' ) ! ~ $ $ $ $ $ ",
"{ { { { { { { { { { { ] ; ^ / ( _ : ! < $ $ $ $ $ $ ",
"{ { { { { { { { { { { [ } | 1 2 3 4 5 $ $ $ $ $ $ $ ",
"{ { { { { { { { { { ] 6 7 8 # 9 0 a b $ $ $ $ $ $ $ ",
"{ { { { { { { { { ] ; ^ / c d e ! f $ $ $ $ $ $ $ $ ",
"{ { { { { { { { { [ } | g 2 h i j $ $ $ $ $ $ $ $ $ ",
"{ { { { { { { { ] 6 7 8 # 9 # k $ $ $ $ $ $ $ $ $ $ ",
"{ { { { { { { ] ; ^ / c d l % m $ $ $ $ $ $ $ $ $ $ ",
"{ { { { { { { [ } | g 2 n o p $ $ $ $ $ $ $ $ $ $ $ ",
"{ { { { { { ] q 7 8 # 9 g r $ $ $ $ $ $ $ $ $ $ $ $ ",
"{ { { { { ] ; s t u d v w x $ $ $ $ $ $ $ $ $ $ $ $ ",
"{ { { { ] ; y z A B C D E $ $ $ $ $ $ $ $ $ $ $ $ $ ",
"{ { { { [ } F G H I > 2 $ $ $ $ $ $ $ $ $ $ $ $ $ $ ",
"{ { { ] 6 7 J K L M } N $ $ $ $ $ $ $ $ $ $ $ $ $ $ ",
"{ { ] ; ^ / c O P Q R $ $ $ $ $ $ $ $ $ $ $ $ $ $ $ ",
"{ { [ } | g 2 S [ T $ $ $ $ $ $ $ $ $ $ $ $ $ $ $ $ ",
"] [ q 7 8 # 9 U t $ $ $ $ $ $ $ $ $ $ $ $ $ $ $ $ $ ",
"} y 7 V W X Y D Z $ $ $ $ $ $ $ $ $ $ $ $ $ $ $ $ $ ",
"z `  .c ..+.@.#.$ $ $ $ $ $ $ $ $ $ $ $ $ $ $ $ $ $ ",
"u $.) O #.u A $ $ $ $ $ $ $ $ $ $ $ $ $ $ $ $ $ $ $ ",
"L j +.%.&.o *.$ $ $ $ $ $ $ $ $ $ $ $ $ $ $ $ $ $ $ ",
"+ + + + + =.$ $ $ $ $ $ $ $ $ $ $ $ $ $ $ $ $ $ $ $ ",
"$ $ $ $ $ $ $ $ $ $ $ $ $ $ $ $ $ $ $ $ $ $ $ $ $ $ ",
"$ $ $ $ $ $ $ $ $ $ $ $ $ $ $ $ $ $ $ $ $ $ $ $ $ $ ",
"$ $ $ $ $ $ $ $ $ $ $ $ $ $ $ $ $ $ $ $ $ $ $ $ $ $ ",
"$ $ $ $ $ $ $ $ $ $ $ $ $ $ $ $ $ $ $ $ $ $ $ $ $ $ ",
"+ + + + + + + + + + + + + + + + + + + + + + + + + + "};
