/* XPM */
static char * titleAL_xpm[] = {
"26 30 120 2",
"  	c None",
". 	c #FFFFFF",
"+ 	c #FDFEFE",
"@ 	c #333333",
"# 	c #575757",
"$ 	c #E9E9E9",
"% 	c #A3A3A3",
"& 	c #BFBFBF",
"* 	c #383838",
"= 	c #E3E3E3",
"- 	c #A0A0A0",
"; 	c #A74343",
"> 	c #C74F4F",
", 	c #E25A5A",
"' 	c #F16060",
") 	c #FA6363",
"! 	c #FD6565",
"~ 	c #FF6565",
"{ 	c #555555",
"] 	c #EFEFEF",
"^ 	c #4F4F4F",
"/ 	c #AA2222",
"( 	c #CE2929",
"_ 	c #E82E2E",
": 	c #F63131",
"< 	c #FC3232",
"[ 	c #FE3232",
"} 	c #FF3333",
"| 	c #929292",
"1 	c #CFCFCF",
"2 	c #891D1D",
"3 	c #B52424",
"4 	c #D82B2B",
"5 	c #ED2F2F",
"6 	c #F93131",
"7 	c #FD3232",
"8 	c #343434",
"9 	c #CBCBCB",
"0 	c #939393",
"a 	c #971E1E",
"b 	c #C12626",
"c 	c #E02C2C",
"d 	c #F23030",
"e 	c #FB3232",
"f 	c #4C4C4C",
"g 	c #5C5C5C",
"h 	c #A62121",
"i 	c #CD2929",
"j 	c #7F7F7F",
"k 	c #DDDDDD",
"l 	c #8B2222",
"m 	c #D72B2B",
"n 	c #BBBBBB",
"o 	c #A4A4A4",
"p 	c #434343",
"q 	c #EAEAEA",
"r 	c #676767",
"s 	c #6B6B6B",
"t 	c #E8E8E8",
"u 	c #8F2A2A",
"v 	c #ABABAB",
"w 	c #B6B6B6",
"x 	c #FA3232",
"y 	c #3B3B3B",
"z 	c #E0E0E0",
"A 	c #797979",
"B 	c #CC2828",
"C 	c #E62E2E",
"D 	c #F53131",
"E 	c #5B5B5B",
"F 	c #EEEEEE",
"G 	c #933434",
"H 	c #B22323",
"I 	c #D42A2A",
"J 	c #EB2F2F",
"K 	c #F73131",
"L 	c #9A9A9A",
"M 	c #C8C8C8",
"N 	c #901D1D",
"O 	c #BA2525",
"P 	c #DA2B2B",
"Q 	c #EE2F2F",
"R 	c #363636",
"S 	c #D3D3D3",
"T 	c #8A8A8A",
"U 	c #9B1F1F",
"V 	c #C32727",
"W 	c #E12D2D",
"X 	c #535456",
"Y 	c #F1F1F1",
"Z 	c #565656",
"` 	c #A72121",
" .	c #888888",
"..	c #D7D7D7",
"+.	c #8A2020",
"@.	c #C3C3C3",
"#.	c #9B9B9B",
"$.	c #474747",
"%.	c #646464",
"&.	c #A52121",
"*.	c #CB2828",
"=.	c #E42D2D",
"-.	c #F13030",
";.	c #737373",
">.	c #8A2525",
",.	c #AE2222",
"'.	c #DF2C2C",
").	c #E72E2E",
"!.	c #B4B4B4",
"~.	c #ADADAD",
"{.	c #881B1B",
"].	c #A82121",
"^.	c #BD2525",
"/.	c #C82828",
"(.	c #414141",
"_.	c #585858",
":.	c #791818",
"<.	c #8C1C1C",
"[.	c #961E1E",
"}.	c #454545",
". . . . . +                                         ",
"@ @ @ @ @ # $                                       ",
"@ @ @ @ @ @ % &                                     ",
"@ @ @ @ @ @ * = - ; > , ' ) ! ~ ~ ~ ~ ~ ~ ~ ~ ~ ~ ~ ",
"@ @ @ @ @ @ @ { ] ^ / ( _ : < [ } } } } } } } } } } ",
"@ @ @ @ @ @ @ @ | 1 2 3 4 5 6 7 } } } } } } } } } } ",
"@ @ @ @ @ @ @ @ 8 9 0 a b c d e [ } } } } } } } } } ",
"@ @ @ @ @ @ @ @ @ f ] g h i _ : < [ } } } } } } } } ",
"@ @ @ @ @ @ @ @ @ @ j k l 3 m 5 6 7 } } } } } } } } ",
"@ @ @ @ @ @ @ @ @ @ @ n o a b c d e [ } } } } } } } ",
"@ @ @ @ @ @ @ @ @ @ @ p q r h i _ : < [ } } } } } } ",
"@ @ @ @ @ @ @ @ @ @ @ @ s t u 3 m 5 6 7 } } } } } } ",
"@ @ @ @ @ @ @ @ @ @ @ @ @ v w a b c d x [ } } } } } ",
"@ @ @ @ @ @ @ @ @ @ @ @ @ y z A h B C D < [ } } } } ",
"@ @ @ @ @ @ @ @ @ @ @ @ @ @ E F G H I J K < [ } } } ",
"@ @ @ @ @ @ @ @ @ @ @ @ @ @ @ L M N O P Q 6 7 } } } ",
"@ @ @ @ @ @ @ @ @ @ @ @ @ @ @ R S T U V W d e [ } } ",
"@ @ @ @ @ @ @ @ @ @ @ @ @ @ @ @ X Y Z ` i _ : < [ } ",
"@ @ @ @ @ @ @ @ @ @ @ @ @ @ @ @ @  ...+.3 m 5 6 7 } ",
"@ @ @ @ @ @ @ @ @ @ @ @ @ @ @ @ @ @ @.#.a b c d x 7 ",
"@ @ @ @ @ @ @ @ @ @ @ @ @ @ @ @ @ @ $.F %.&.*.=.-.K ",
"@ @ @ @ @ @ @ @ @ @ @ @ @ @ @ @ @ @ @ ;.= >.,.i '.).",
"@ @ @ @ @ @ @ @ @ @ @ @ @ @ @ @ @ @ @ @ !.~.{.].^./.",
"@ @ @ @ @ @ @ @ @ @ @ @ @ @ @ @ @ @ @ @ (.t _.:.<.[.",
"@ @ @ @ @ @ @ @ @ @ @ @ @ @ @ @ @ @ @ @ @ }.. . . . ",
"@ @ @ @ @ @ @ @ @ @ @ @ @ @ @ @ @ @ @ @ @ @ @ @ @ @ ",
"@ @ @ @ @ @ @ @ @ @ @ @ @ @ @ @ @ @ @ @ @ @ @ @ @ @ ",
"@ @ @ @ @ @ @ @ @ @ @ @ @ @ @ @ @ @ @ @ @ @ @ @ @ @ ",
"@ @ @ @ @ @ @ @ @ @ @ @ @ @ @ @ @ @ @ @ @ @ @ @ @ @ ",
". . . . . . . . . . . . . . . . . . . . . . . . . . "};
