/* XPM */
static char * titleIL_xpm[] = {
"26 30 103 2",
"  	c None",
". 	c #FFFFFF",
"+ 	c #FDFEFE",
"@ 	c #333333",
"# 	c #575757",
"$ 	c #E9E9E9",
"% 	c #A3A3A3",
"& 	c #BFBFBF",
"* 	c #383838",
"= 	c #E3E3E3",
"- 	c #A0A0A0",
"; 	c #959595",
"> 	c #B1B1B1",
", 	c #C8C8C8",
"' 	c #D6D6D6",
") 	c #DEDEDE",
"! 	c #E1E1E1",
"~ 	c #E2E2E2",
"{ 	c #555555",
"] 	c #EFEFEF",
"^ 	c #4F4F4F",
"/ 	c #909090",
"( 	c #AFAFAF",
"_ 	c #C5C5C5",
": 	c #D1D1D1",
"< 	c #D8D8D8",
"[ 	c #D9D9D9",
"} 	c #929292",
"| 	c #CFCFCF",
"1 	c #757575",
"2 	c #9A9A9A",
"3 	c #B7B7B7",
"4 	c #C9C9C9",
"5 	c #D3D3D3",
"6 	c #D7D7D7",
"7 	c #343434",
"8 	c #CBCBCB",
"9 	c #939393",
"0 	c #808080",
"a 	c #A4A4A4",
"b 	c #BEBEBE",
"c 	c #CDCDCD",
"d 	c #D5D5D5",
"e 	c #4C4C4C",
"f 	c #5C5C5C",
"g 	c #8D8D8D",
"h 	c #AEAEAE",
"i 	c #7F7F7F",
"j 	c #DDDDDD",
"k 	c #787878",
"l 	c #B6B6B6",
"m 	c #BBBBBB",
"n 	c #434343",
"o 	c #EAEAEA",
"p 	c #676767",
"q 	c #6B6B6B",
"r 	c #E8E8E8",
"s 	c #7C7C7C",
"t 	c #ABABAB",
"u 	c #D4D4D4",
"v 	c #3B3B3B",
"w 	c #E0E0E0",
"x 	c #797979",
"y 	c #ADADAD",
"z 	c #C3C3C3",
"A 	c #D0D0D0",
"B 	c #5B5B5B",
"C 	c #EEEEEE",
"D 	c #828282",
"E 	c #979797",
"F 	c #B4B4B4",
"G 	c #C7C7C7",
"H 	c #D2D2D2",
"I 	c #7B7B7B",
"J 	c #9E9E9E",
"K 	c #B9B9B9",
"L 	c #CACACA",
"M 	c #363636",
"N 	c #8A8A8A",
"O 	c #838383",
"P 	c #A5A5A5",
"Q 	c #535456",
"R 	c #F1F1F1",
"S 	c #565656",
"T 	c #8E8E8E",
"U 	c #888888",
"V 	c #767676",
"W 	c #9B9B9B",
"X 	c #474747",
"Y 	c #646464",
"Z 	c #8C8C8C",
"` 	c #ACACAC",
" .	c #C2C2C2",
"..	c #737373",
"+.	c #777777",
"@.	c #949494",
"#.	c #BDBDBD",
"$.	c #C4C4C4",
"%.	c #AAAAAA",
"&.	c #414141",
"*.	c #585858",
"=.	c #666666",
"-.	c #454545",
". . . . . +                                         ",
"@ @ @ @ @ # $                                       ",
"@ @ @ @ @ @ % &                                     ",
"@ @ @ @ @ @ * = - ; > , ' ) ! ~ ~ ~ ~ ~ ~ ~ ~ ~ ~ ~ ",
"@ @ @ @ @ @ @ { ] ^ / ( _ : ' < [ [ [ [ [ [ [ [ [ [ ",
"@ @ @ @ @ @ @ @ } | 1 2 3 4 5 6 [ [ [ [ [ [ [ [ [ [ ",
"@ @ @ @ @ @ @ @ 7 8 9 0 a b c d < [ [ [ [ [ [ [ [ [ ",
"@ @ @ @ @ @ @ @ @ e ] f g h _ : ' < [ [ [ [ [ [ [ [ ",
"@ @ @ @ @ @ @ @ @ @ i j k 2 l 4 5 6 [ [ [ [ [ [ [ [ ",
"@ @ @ @ @ @ @ @ @ @ @ m a 0 a b c d < [ [ [ [ [ [ [ ",
"@ @ @ @ @ @ @ @ @ @ @ n o p g h _ : ' < [ [ [ [ [ [ ",
"@ @ @ @ @ @ @ @ @ @ @ @ q r s 2 l 4 5 6 [ [ [ [ [ [ ",
"@ @ @ @ @ @ @ @ @ @ @ @ @ t l 0 a b c u < [ [ [ [ [ ",
"@ @ @ @ @ @ @ @ @ @ @ @ @ v w x g y z A ' < [ [ [ [ ",
"@ @ @ @ @ @ @ @ @ @ @ @ @ @ B C D E F G H ' < [ [ [ ",
"@ @ @ @ @ @ @ @ @ @ @ @ @ @ @ 2 , I J K L 5 6 [ [ [ ",
"@ @ @ @ @ @ @ @ @ @ @ @ @ @ @ M 5 N O P & c d < [ [ ",
"@ @ @ @ @ @ @ @ @ @ @ @ @ @ @ @ Q R S T h _ : ' < [ ",
"@ @ @ @ @ @ @ @ @ @ @ @ @ @ @ @ @ U 6 V 2 l 4 5 6 [ ",
"@ @ @ @ @ @ @ @ @ @ @ @ @ @ @ @ @ @ z W 0 a b c u 6 ",
"@ @ @ @ @ @ @ @ @ @ @ @ @ @ @ @ @ @ X C Y Z `  .c H ",
"@ @ @ @ @ @ @ @ @ @ @ @ @ @ @ @ @ @ @ ..= +.@.h #.$.",
"@ @ @ @ @ @ @ @ @ @ @ @ @ @ @ @ @ @ @ @ F y ..T - %.",
"@ @ @ @ @ @ @ @ @ @ @ @ @ @ @ @ @ @ @ @ &.r *.=.+.i ",
"@ @ @ @ @ @ @ @ @ @ @ @ @ @ @ @ @ @ @ @ @ -.. . . . ",
"@ @ @ @ @ @ @ @ @ @ @ @ @ @ @ @ @ @ @ @ @ @ @ @ @ @ ",
"@ @ @ @ @ @ @ @ @ @ @ @ @ @ @ @ @ @ @ @ @ @ @ @ @ @ ",
"@ @ @ @ @ @ @ @ @ @ @ @ @ @ @ @ @ @ @ @ @ @ @ @ @ @ ",
"@ @ @ @ @ @ @ @ @ @ @ @ @ @ @ @ @ @ @ @ @ @ @ @ @ @ ",
". . . . . . . . . . . . . . . . . . . . . . . . . . "};
