/* XPM */
static char * titleIB_xpm[] = {
"1 30 10 1",
" 	c None",
".	c #E2E2E2",
"+	c #D9D9D9",
"@	c #D8D8D8",
"#	c #D3D3D3",
"$	c #C7C7C7",
"%	c #AEAEAE",
"&	c #848484",
"*	c #FFFFFF",
"=	c #333333",
" ",
" ",
" ",
".",
"+",
"+",
"+",
"+",
"+",
"+",
"+",
"+",
"+",
"+",
"+",
"+",
"+",
"+",
"+",
"@",
"#",
"$",
"%",
"&",
"*",
"=",
"=",
"=",
"=",
"*"};
