/* XPM */
static char * closeA_xpm[] = {
"20 44 4 1",
" 	c None",
".	c #1CB3FE",
"+	c #00AAFF",
"@	c #FAFAFA",
".+++++++++++++++++++",
".+++++++++++++++++++",
".+++++++++++++++++++",
".+++++++++++++++++++",
".+++++++++++++++++++",
".++++++@@+++@@++++++",
".++++++@@@+@@@++++++",
".+++++++@@@@@+++++++",
".++++++++@@@++++++++",
".+++++++@@@@@+++++++",
".++++++@@@+@@@++++++",
".++++++@@+++@@++++++",
".+++++++++++++++++++",
".+++++++++++++++++++",
".+++++++++++++++++++",
".+++++++++++++++++++",
".+++++++++++++++++++",
".+++++++++++++++++++",
"@@@@@@@@@@@@@@@@@@@@",
"@@@@@@@@@@@@@@@@@@@@",
"@@@@@@@@@@@@@@@@@@@@",
"@@@@@@@@@@@@@@@@@@@@",
".+++++++++++++++++++",
".+++++++++++++++++++",
".+++++++++++++++++++",
".+++++++++++++++++++",
".+++++++++++++++++++",
".++++++@@+++@@++++++",
".++++++@@@+@@@++++++",
".+++++++@@@@@+++++++",
".++++++++@@@++++++++",
".+++++++@@@@@+++++++",
".++++++@@@+@@@++++++",
".++++++@@+++@@++++++",
".+++++++++++++++++++",
".+++++++++++++++++++",
".+++++++++++++++++++",
".+++++++++++++++++++",
".+++++++++++++++++++",
".+++++++++++++++++++",
"@@@@@@@@@@@@@@@@@@@@",
"@@@@@@@@@@@@@@@@@@@@",
"@@@@@@@@@@@@@@@@@@@@",
"@@@@@@@@@@@@@@@@@@@@"};
