/* XPM */
static char * minimizeA_xpm[] = {
"20 44 4 1",
" 	c None",
".	c #89D6FC",
"+	c #7DD2FC",
"@	c #FAFAFA",
".+++++++++++++++++++",
".+++++++++++++++++++",
".+++++++++++++++++++",
".+++++++++++++++++++",
".+++++++++++++++++++",
".+++++++++++++++++++",
".+++++++++++++++++++",
".+++++++++++++++++++",
".+++++++++++++++++++",
".+++++++++++++++++++",
".++++++@@@@@@+++++++",
".++++++@@@@@@+++++++",
".+++++++++++++++++++",
".+++++++++++++++++++",
".+++++++++++++++++++",
".+++++++++++++++++++",
".+++++++++++++++++++",
".+++++++++++++++++++",
"@@@@@@@@@@@@@@@@@@@@",
"@@@@@@@@@@@@@@@@@@@@",
"@@@@@@@@@@@@@@@@@@@@",
"@@@@@@@@@@@@@@@@@@@@",
".+++++++++++++++++++",
".+++++++++++++++++++",
".+++++++++++++++++++",
".+++++++++++++++++++",
".+++++++++++++++++++",
".+++++++++++++++++++",
".+++++++++++++++++++",
".+++++++++++++++++++",
".+++++++++++++++++++",
".+++++++++++++++++++",
".++++++@@@@@@+++++++",
".++++++@@@@@@+++++++",
".+++++++++++++++++++",
".+++++++++++++++++++",
".+++++++++++++++++++",
".+++++++++++++++++++",
".+++++++++++++++++++",
".+++++++++++++++++++",
"@@@@@@@@@@@@@@@@@@@@",
"@@@@@@@@@@@@@@@@@@@@",
"@@@@@@@@@@@@@@@@@@@@",
"@@@@@@@@@@@@@@@@@@@@"};
