/* XPM */
static char * restoreA_xpm[] = {
"20 44 4 1",
" 	c None",
".	c #4FC3FD",
"+	c #3FBEFE",
"@	c #FAFAFA",
".+++++++++++++++++++",
".+++++++++++++++++++",
".+++++++++++++++++++",
".+++++++++++++++++++",
".+++++++++++++++++++",
".++++++@@@@@@@++++++",
".++++++@++@++@++++++",
".++++++@++@++@++++++",
".++++++@@@@++@++++++",
".++++++@+++++@++++++",
".++++++@+++++@++++++",
".++++++@@@@@@@++++++",
".+++++++++++++++++++",
".+++++++++++++++++++",
".+++++++++++++++++++",
".+++++++++++++++++++",
".+++++++++++++++++++",
".+++++++++++++++++++",
"@@@@@@@@@@@@@@@@@@@@",
"@@@@@@@@@@@@@@@@@@@@",
"@@@@@@@@@@@@@@@@@@@@",
"@@@@@@@@@@@@@@@@@@@@",
".+++++++++++++++++++",
".+++++++++++++++++++",
".+++++++++++++++++++",
".+++++++++++++++++++",
".+++++++++++++++++++",
".++++++@@@@@@@++++++",
".++++++@++@++@++++++",
".++++++@++@++@++++++",
".++++++@@@@++@++++++",
".++++++@+++++@++++++",
".++++++@+++++@++++++",
".++++++@@@@@@@++++++",
".+++++++++++++++++++",
".+++++++++++++++++++",
".+++++++++++++++++++",
".+++++++++++++++++++",
".+++++++++++++++++++",
".+++++++++++++++++++",
"@@@@@@@@@@@@@@@@@@@@",
"@@@@@@@@@@@@@@@@@@@@",
"@@@@@@@@@@@@@@@@@@@@",
"@@@@@@@@@@@@@@@@@@@@"};
