/* XPM */
static char * desktop_xpm[] = {
"24 20 9 1",
" 	c None",
".	c #247EAC",
"+	c #7ED3FF",
"@	c #2D8BBC",
"#	c #3594C6",
"$	c #3E9CCC",
"%	c #4BA9D9",
"&	c #57B5E5",
"*	c #6BC4F2",
"                        ",
"                        ",
"                        ",
"  ....................  ",
"  .++++++++++++++++++.  ",
"  .++++++++++++++++++.  ",
"  ....................  ",
"  .@@@@@@@@@@@@@@@@@@.  ",
"  .@@@@@@@@@@@@@@@@@@.  ",
"  .@@@@@@@@@@@@@@@@@@.  ",
"  .@@@@@@@@@@@@@@@@@@.  ",
"  .@@@@@@@@@@@@@@@@@@.  ",
"  .##################.  ",
"  .$$$$$$$$$$$$$$$$$$.  ",
"  .%%%%%%%%%%%%%%%%%%.  ",
"  .&&&&&&&&&&&&&&&&&&.  ",
"  .******************.  ",
"  .++++++++++++++++++.  ",
"  ....................  ",
"                        "};
