/* XPM */
static char * icewm_xpm[] = {
"50 19 93 2",
"  	c None",
". 	c #247EAC",
"+ 	c #2D8BBC",
"@ 	c #FFFFFF",
"# 	c #7FB8D5",
"$ 	c #E2EFF5",
"% 	c #F9FBFC",
"& 	c #D9E9F2",
"* 	c #69ABCE",
"= 	c #91C1DB",
"- 	c #E8F2F7",
"; 	c #F5F9FB",
"> 	c #CCE2EE",
", 	c #4E9DC6",
"' 	c #5DA5CA",
") 	c #C6DFEC",
"! 	c #F3F8FA",
"~ 	c #F2F7FA",
"{ 	c #CEE3EE",
"] 	c #70AFD0",
"^ 	c #CFE4EF",
"/ 	c #F7FAFB",
"( 	c #EFF5F9",
"_ 	c #BEDBEA",
": 	c #4799C3",
"< 	c #BCD9E9",
"[ 	c #3B92C0",
"} 	c #73B1D1",
"| 	c #BAD9E8",
"1 	c #3A92BF",
"2 	c #74B2D2",
"3 	c #60A7CC",
"4 	c #FAFCFC",
"5 	c #CBE2ED",
"6 	c #4899C4",
"7 	c #3A91BF",
"8 	c #B1D4E5",
"9 	c #79B5D3",
"0 	c #D7E8F1",
"a 	c #539FC7",
"b 	c #368FBE",
"c 	c #92C2DB",
"d 	c #CAE1ED",
"e 	c #FDFDFD",
"f 	c #4D9CC5",
"g 	c #338EBD",
"h 	c #2F8CBC",
"i 	c #519EC6",
"j 	c #3E94C0",
"k 	c #DEECF4",
"l 	c #59A3C9",
"m 	c #358FBE",
"n 	c #F8FAFC",
"o 	c #FBFCFD",
"p 	c #308CBC",
"q 	c #318CBC",
"r 	c #2D8ABB",
"s 	c #3D93C0",
"t 	c #FCFDFD",
"u 	c #C9E1ED",
"v 	c #71B0D1",
"w 	c #58A2C9",
"x 	c #3594C6",
"y 	c #62ABD2",
"z 	c #E3F0F6",
"A 	c #5FAAD1",
"B 	c #3895C6",
"C 	c #4B9FCB",
"D 	c #7FBBDA",
"E 	c #CFE5F1",
"F 	c #CDE4F0",
"G 	c #91C4DF",
"H 	c #3D98C7",
"I 	c #58A6CF",
"J 	c #D7E9F3",
"K 	c #3E9CCC",
"L 	c #64AFD5",
"M 	c #C1DFEE",
"N 	c #EFF6FA",
"O 	c #FAFCFD",
"P 	c #EAF4F8",
"Q 	c #BADBEC",
"R 	c #6BB3D7",
"S 	c #56A7D1",
"T 	c #C4E0EE",
"U 	c #F0F7FA",
"V 	c #F2F8FB",
"W 	c #D2E7F2",
"X 	c #7CBBDB",
"Y 	c #4BA9D9",
"Z 	c #57B5E5",
"` 	c #6BC4F2",
" .	c #7ED3FF",
"                                                                                                    ",
". . . . . . . . . . . . . . . . . . . . . . . . . . . . . . . . . . . . . . . . . . . . . . . . . . ",
". + + + + + + + + + + + + + + + + + + + + + + + + + + + + + + + + + + + + + + + + + + + + + + + + . ",
". + + + + + + + + + + + + + + + + + + + + + + + + + + + + + + + + + + + + + + + + + + + + + + + + . ",
". + + + + + + + + + + + + + + + + + + + + + + + + + + + + + + + + + + + + + + + + + + + + + + + + . ",
". + + + + + + + + + + + + + + + + + + + + + + + + + + + + + + + + + + + + + + + + + + + + + + + + . ",
". + + + @ @ # $ % & * = - ; > , + + + ' ) ! ~ { * + + + @ @ ] ^ / ( _ : + + @ @ + + + + @ @ + + + . ",
". + + + @ @ < [ } @ @ | 1 2 @ ^ + + 3 4 5 6 7 8 @ 9 + + @ @ 0 a b c @ d + + @ e + + + + @ @ + + + . ",
". + + + @ @ f + g @ @ f + h e % + + 5 @ i + + j @ k + + @ @ l + + m @ n + + @ o + + + + @ @ + + + . ",
". + + + @ @ h + + @ @ p + + @ @ + + ; @ @ @ @ @ @ o + + @ @ q + + r @ @ + + @ o + + + + @ @ + + + . ",
". + + + @ @ + + + @ @ + + + @ @ + + ; @ s + + + + + + + @ @ + + + + @ @ + + @ t + + + q @ @ + + + . ",
". + + + @ @ + + + @ @ + + + @ @ + + u @ v + + + + + + + @ @ + + + + @ @ + + % @ g + + w @ @ + + + . ",
". x x x @ @ x x x @ @ x x x @ @ x x y % z A B C D E x x @ @ x x x x @ @ x x F @ G H I J @ @ x x x . ",
". K K K @ @ K K K @ @ K K K @ @ K K K L M N O P Q R K K @ @ K K K K @ @ K K S T U V W X @ @ K K K . ",
". Y Y Y Y Y Y Y Y Y Y Y Y Y Y Y Y Y Y Y Y Y Y Y Y Y Y Y Y Y Y Y Y Y Y Y Y Y Y Y Y Y Y Y Y Y Y Y Y . ",
". Z Z Z Z Z Z Z Z Z Z Z Z Z Z Z Z Z Z Z Z Z Z Z Z Z Z Z Z Z Z Z Z Z Z Z Z Z Z Z Z Z Z Z Z Z Z Z Z . ",
". ` ` ` ` ` ` ` ` ` ` ` ` ` ` ` ` ` ` ` ` ` ` ` ` ` ` ` ` ` ` ` ` ` ` ` ` ` ` ` ` ` ` ` ` ` ` ` ` . ",
".  . . . . . . . . . . . . . . . . . . . . . . . . . . . . . . . . . . . . . . . . . . . . . . . .. ",
". . . . . . . . . . . . . . . . . . . . . . . . . . . . . . . . . . . . . . . . . . . . . . . . . . "};
