/* XPM */
static char * lock_16x16_xpm[] = {
"16 14 2 1",
" 	c None",
".	c #FFFFFF",
"                ",
"      .....     ",
"     .......    ",
"     ..   ..    ",
"     ..   ..    ",
"     ..   ..    ",
"   ...........  ",
"   .         .  ",
"   . ....... .  ",
"   .         .  ",
"   . ....... .  ",
"   ..       ..  ",
"    .........   ",
"                "};
