/* XPM */
static char * windows_16x16_xpm[] = {
"16 16 3 1",
" 	c None",
".	c #FFFFFF",
"+	c #999999",
"                ",
"                ",
"                ",
"  ............  ",
"  ++++++++++++  ",
"                ",
"                ",
"  ............  ",
"  ++++++++++++  ",
"                ",
"                ",
"  ............  ",
"  ++++++++++++  ",
"                ",
"                ",
"                "};
